<svg width="36" height="22" viewBox="0 0 36 22" fill="none" xmlns="http://www.w3.org/2000/svg">
<path d="M28.5 18.5V21.5H10.5V18.5C10.5 18.5 10.5 12.5 19.5 12.5C28.5 12.5 28.5 18.5 28.5 18.5ZM24 5C24 4.10999 23.7361 3.23996 23.2416 2.49994C22.7471 1.75991 22.0443 1.18314 21.2221 0.842544C20.3998 0.50195 19.495 0.412835 18.6221 0.586468C17.7492 0.760102 16.9474 1.18868 16.318 1.81802C15.6887 2.44736 15.2601 3.24918 15.0865 4.1221C14.9128 4.99501 15.0019 5.89981 15.3425 6.72208C15.6831 7.54434 16.2599 8.24715 16.9999 8.74161C17.74 9.23608 18.61 9.5 19.5 9.5C20.6935 9.5 21.8381 9.0259 22.682 8.18198C23.5259 7.33807 24 6.19348 24 5ZM28.8 12.59C29.6199 13.3465 30.281 14.2587 30.7446 15.2734C31.2081 16.2881 31.465 17.385 31.5 18.5V21.5H36V18.5C36 18.5 36 13.325 28.8 12.59ZM27 0.500002C26.5468 0.500273 26.0964 0.571122 25.665 0.710002C26.5426 1.96846 27.0131 3.46578 27.0131 5C27.0131 6.53423 26.5426 8.03155 25.665 9.29C26.0964 9.42888 26.5468 9.49973 27 9.5C28.1935 9.5 29.3381 9.0259 30.182 8.18198C31.0259 7.33807 31.5 6.19348 31.5 5C31.5 3.80653 31.0259 2.66194 30.182 1.81802C29.3381 0.974108 28.1935 0.500002 27 0.500002ZM12 8H7.5V3.5H4.5V8H0V11H4.5V15.5H7.5V11H12V8Z" fill="#828282"/>
</svg>
