<svg width="99" height="99" viewBox="0 0 99 99" fill="none" xmlns="http://www.w3.org/2000/svg">
<path d="M85.0781 54.2953L96.6797 65.7422L45.1687 90.3375C45.1687 90.3375 38.3625 93.4312 35.1141 88.4812C22.4297 68.6812 85.0781 54.2953 85.0781 54.2953Z" fill="#256382"/>
<path d="M43.9312 75.9516C43.9312 75.9516 34.0312 79.3547 35.8875 86.0063C37.7437 92.8125 45.6328 88.636 45.6328 88.636L94.514 65.8969C94.514 65.8969 91.7297 58.6266 96.6797 53.8313L43.9312 75.9516Z" fill="#D9E3E8"/>
<path d="M52.1296 7.73438L98.9999 53.3672L43.6218 75.0234L8.0437 19.6453L52.1296 7.73438Z" fill="#42ADE2"/>
<path d="M53.5218 18.0984L62.4937 27.689L28.9265 39.7546L21.0375 27.5343L53.5218 18.0984Z" fill="white"/>
<path d="M94.3593 58.7812L61.7203 72.0844L93.8953 57.389L94.3593 58.7812ZM93.8953 62.8031L59.0906 77.189L93.2765 61.2562L93.8953 62.8031ZM94.2046 64.9687L49.8093 84.3047L93.5859 63.5765L94.2046 64.9687Z" fill="#94989B"/>
<path d="M35.1141 88.4812C29.7 77.189 43.6219 75.178 43.6219 75.178L8.04375 19.6452C8.04375 19.6452 0 19.4905 0 27.8437C0 31.2468 1.54688 33.8765 1.54688 33.8765L35.1141 88.4812Z" fill="#428BC1"/>
</svg>
