<svg width="48" height="48" viewBox="0 0 48 48" fill="none" xmlns="http://www.w3.org/2000/svg">
<circle cx="24" cy="24" r="24" fill="#E7F7FF"/>
<g clip-path="url(#clip0_335_1844)">
<path d="M25.7525 26.8075C26.5337 26.8075 27.2325 26.2025 27.2325 25.3325C27.2325 24.2925 26.5737 23.795 25.7825 23.795C25.05 23.795 24.3225 24.2788 24.3225 25.3075C24.3225 26.3288 25.0012 26.8075 25.7525 26.8075V26.8075Z" fill="#128BC7"/>
<path d="M18.375 14C18.5408 14 18.6997 14.0658 18.8169 14.1831C18.9342 14.3003 19 14.4592 19 14.625V15.25H29V14.625C29 14.4592 29.0658 14.3003 29.1831 14.1831C29.3003 14.0658 29.4592 14 29.625 14C29.7908 14 29.9497 14.0658 30.0669 14.1831C30.1842 14.3003 30.25 14.4592 30.25 14.625V15.25H31.5C32.163 15.25 32.7989 15.5134 33.2678 15.9822C33.7366 16.4511 34 17.087 34 17.75V31.5C34 32.163 33.7366 32.7989 33.2678 33.2678C32.7989 33.7366 32.163 34 31.5 34H16.5C15.837 34 15.2011 33.7366 14.7322 33.2678C14.2634 32.7989 14 32.163 14 31.5V17.75C14 17.087 14.2634 16.4511 14.7322 15.9822C15.2011 15.5134 15.837 15.25 16.5 15.25H17.75V14.625C17.75 14.4592 17.8158 14.3003 17.9331 14.1831C18.0503 14.0658 18.2092 14 18.375 14V14ZM30.8175 17.75H17.1813C16.8063 17.75 16.5 18.03 16.5 18.375V19.625C16.5 19.97 16.805 20.25 17.1813 20.25H30.8187C31.1937 20.25 31.5 19.97 31.5 19.625V18.375C31.5 18.03 31.195 17.75 30.8175 17.75ZM25.67 29.9875C27.2425 29.9875 28.17 28.6538 28.17 26.3975C28.17 23.98 27.1938 23.0625 25.7288 23.0625C24.5713 23.0625 23.4825 23.9025 23.4825 25.3238C23.4825 26.7737 24.5125 27.5363 25.5775 27.5363C26.51 27.5363 27.115 27.0662 27.3063 26.5487H27.34C27.335 28.1937 26.7637 29.2538 25.7087 29.2538C24.8787 29.2538 24.4488 28.6913 24.3963 28.2288H23.5412C23.6 29.0288 24.2838 29.9862 25.67 29.9862V29.9875ZM22.0575 23.1938H21.2663C20.6992 23.4954 20.1511 23.8314 19.625 24.2V25.0687C20.0938 24.7475 20.8362 24.2938 21.1975 24.0975H21.2125V29.86H22.0563V23.1925L22.0575 23.1938Z" fill="#128BC7"/>
</g>
<defs>
<clipPath id="clip0_335_1844">
<rect width="20" height="20" fill="white" transform="translate(14 14)"/>
</clipPath>
</defs>
</svg>
