<svg width="48" height="48" viewBox="0 0 48 48" fill="none" xmlns="http://www.w3.org/2000/svg">
<circle cx="24" cy="24" r="24" fill="#E7F7FF"/>
<g clip-path="url(#clip0_335_1845)">
<path d="M24 15C23.2915 14.9989 22.6055 15.2487 22.0635 15.7049C21.5215 16.1612 21.1585 16.7945 21.0387 17.4928C20.9189 18.1911 21.0502 18.9092 21.4091 19.52C21.7681 20.1309 22.3317 20.5949 23 20.83V23H20C19.2043 23 18.4413 23.3161 17.8787 23.8787C17.3161 24.4413 17 25.2044 17 26V27.17C16.3325 27.4059 15.7699 27.8702 15.4116 28.4808C15.0534 29.0914 14.9225 29.809 15.0422 30.5068C15.1619 31.2046 15.5244 31.8375 16.0656 32.2939C16.6069 32.7502 17.292 33.0005 18 33.0005C18.708 33.0005 19.3931 32.7502 19.9344 32.2939C20.4756 31.8375 20.8381 31.2046 20.9578 30.5068C21.0775 29.809 20.9466 29.0914 20.5884 28.4808C20.2301 27.8702 19.6675 27.4059 19 27.17V26C19 25.7348 19.1054 25.4804 19.2929 25.2929C19.4804 25.1054 19.7348 25 20 25H28C28.2652 25 28.5196 25.1054 28.7071 25.2929C28.8946 25.4804 29 25.7348 29 26V27.17C28.3325 27.4059 27.7699 27.8702 27.4116 28.4808C27.0534 29.0914 26.9225 29.809 27.0422 30.5068C27.1619 31.2046 27.5244 31.8375 28.0656 32.2939C28.6069 32.7502 29.292 33.0005 30 33.0005C30.708 33.0005 31.3931 32.7502 31.9344 32.2939C32.4756 31.8375 32.8381 31.2046 32.9578 30.5068C33.0775 29.809 32.9466 29.0914 32.5884 28.4808C32.2301 27.8702 31.6675 27.4059 31 27.17V26C31 25.2044 30.6839 24.4413 30.1213 23.8787C29.5587 23.3161 28.7956 23 28 23H25V20.83C25.6671 20.5939 26.2294 20.1295 26.5874 19.519C26.9454 18.9085 27.0761 18.1912 26.9564 17.4937C26.8368 16.7961 26.4745 16.1633 25.9335 15.707C25.3925 15.2508 24.7077 15.0003 24 15Z" fill="#128BC7"/>
</g>
<defs>
<clipPath id="clip0_335_1845">
<rect width="24" height="24" fill="white" transform="translate(12 12)"/>
</clipPath>
</defs>
</svg>
