<svg width="48" height="48" viewBox="0 0 48 48" fill="none" xmlns="http://www.w3.org/2000/svg">
<circle cx="24" cy="24" r="24" fill="#E7F7FF"/>
<path d="M23.5517 14C24.8321 14 26.06 14.5086 26.9653 15.414C27.8707 16.3193 28.3793 17.5472 28.3793 18.8276C28.3793 20.1079 27.8707 21.3359 26.9653 22.2412C26.06 23.1466 24.8321 23.6552 23.5517 23.6552C22.2714 23.6552 21.0435 23.1466 20.1381 22.2412C19.2328 21.3359 18.7241 20.1079 18.7241 18.8276C18.7241 17.5472 19.2328 16.3193 20.1381 15.414C21.0435 14.5086 22.2714 14 23.5517 14ZM13.8966 17.4483C14.669 17.4483 15.3862 17.6552 16.0069 18.0276C15.8 20 16.3793 21.9586 17.5655 23.4897C16.8759 24.8138 15.4966 25.7241 13.8966 25.7241C12.7991 25.7241 11.7466 25.2882 10.9706 24.5122C10.1946 23.7362 9.75862 22.6837 9.75862 21.5862C9.75862 20.4888 10.1946 19.4363 10.9706 18.6602C11.7466 17.8842 12.7991 17.4483 13.8966 17.4483ZM33.2069 17.4483C34.3043 17.4483 35.3568 17.8842 36.1329 18.6602C36.9089 19.4363 37.3448 20.4888 37.3448 21.5862C37.3448 22.6837 36.9089 23.7362 36.1329 24.5122C35.3568 25.2882 34.3043 25.7241 33.2069 25.7241C31.6069 25.7241 30.2276 24.8138 29.5379 23.4897C30.7405 21.9371 31.2987 19.981 31.0965 18.0276C31.7172 17.6552 32.4345 17.4483 33.2069 17.4483ZM14.5862 31.5862C14.5862 28.731 18.6 26.4138 23.5517 26.4138C28.5034 26.4138 32.5172 28.731 32.5172 31.5862V34H14.5862V31.5862ZM7 34V31.931C7 30.0138 9.6069 28.4 13.1379 27.931C12.3241 28.869 11.8276 30.1655 11.8276 31.5862V34H7ZM40.1034 34H35.2759V31.5862C35.2759 30.1655 34.7793 28.869 33.9655 27.931C37.4965 28.4 40.1034 30.0138 40.1034 31.931V34Z" fill="#128BC7"/>
</svg>
