<svg width="24" height="24" viewBox="0 0 24 24" fill="none" xmlns="http://www.w3.org/2000/svg">
<path fill-rule="evenodd" clip-rule="evenodd" d="M10.796 2.24399C12.653 1.82599 14 3.42199 14 4.99999V19C14 20.578 12.653 22.174 10.796 21.756C6.334 20.752 3 16.766 3 12C3 7.23399 6.334 3.24799 10.796 2.24399ZM16.293 8.29299C16.4805 8.10552 16.7348 8.0002 17 8.0002C17.2652 8.0002 17.5195 8.10552 17.707 8.29299L20.707 11.293C20.8945 11.4805 20.9998 11.7348 20.9998 12C20.9998 12.2652 20.8945 12.5195 20.707 12.707L17.707 15.707C17.5184 15.8891 17.2658 15.9899 17.0036 15.9877C16.7414 15.9854 16.4906 15.8802 16.3052 15.6948C16.1198 15.5094 16.0146 15.2586 16.0123 14.9964C16.01 14.7342 16.1108 14.4816 16.293 14.293L17.586 13H9C8.73478 13 8.48043 12.8946 8.29289 12.7071C8.10536 12.5196 8 12.2652 8 12C8 11.7348 8.10536 11.4804 8.29289 11.2929C8.48043 11.1053 8.73478 11 9 11H17.586L16.293 9.70699C16.1055 9.51946 16.0002 9.26515 16.0002 8.99999C16.0002 8.73482 16.1055 8.48052 16.293 8.29299Z" fill="#924374"/>
</svg>
