<svg width="24" height="24" viewBox="0 0 24 24" fill="none" xmlns="http://www.w3.org/2000/svg">
<path fill-rule="evenodd" clip-rule="evenodd" d="M1 12C1 5.925 5.925 1 12 1C18.075 1 23 5.925 23 12C23 18.075 18.075 23 12 23C5.925 23 1 18.075 1 12ZM7.498 7.135C7.64952 7.04715 7.82145 7.00063 7.9966 7.0001C8.17174 6.99957 8.34396 7.04506 8.496 7.132L15 10.848V8C15 7.73478 15.1054 7.48043 15.2929 7.29289C15.4804 7.10536 15.7348 7 16 7C16.2652 7 16.5196 7.10536 16.7071 7.29289C16.8946 7.48043 17 7.73478 17 8V16C17 16.2652 16.8946 16.5196 16.7071 16.7071C16.5196 16.8946 16.2652 17 16 17C15.7348 17 15.4804 16.8946 15.2929 16.7071C15.1054 16.5196 15 16.2652 15 16V13.152L8.496 16.868C8.34394 16.9549 8.17174 17.0003 7.99662 16.9997C7.8215 16.9991 7.64961 16.9525 7.49814 16.8646C7.34667 16.7767 7.22094 16.6506 7.13352 16.4989C7.0461 16.3472 7.00006 16.1751 7 16V8C6.99998 7.82483 7.04597 7.65273 7.13336 7.50093C7.22076 7.34912 7.3465 7.22293 7.498 7.135Z" fill="white"/>
</svg>
