<svg width="48" height="48" viewBox="0 0 48 48" fill="none" xmlns="http://www.w3.org/2000/svg">
<circle cx="24" cy="24" r="24" fill="#E7F7FF"/>
<path d="M18 34C17.45 34 16.9793 33.8043 16.588 33.413C16.196 33.021 16 32.55 16 32V29H32V32C32 32.55 31.8043 33.021 31.413 33.413C31.021 33.8043 30.55 34 30 34H18ZM26 21H30L25 16V20C25 20.2833 25.096 20.5207 25.288 20.712C25.4793 20.904 25.7167 21 26 21ZM22 27C21.7167 27 21.4793 26.904 21.288 26.712C21.096 26.5207 21 26.2833 21 26C21 25.7167 21.096 25.479 21.288 25.287C21.4793 25.0957 21.7167 25 22 25H26C26.2833 25 26.521 25.0957 26.713 25.287C26.9043 25.479 27 25.7167 27 26C27 26.2833 26.9043 26.5207 26.713 26.712C26.521 26.904 26.2833 27 26 27H22ZM30 27C29.7167 27 29.4793 26.904 29.288 26.712C29.096 26.5207 29 26.2833 29 26C29 25.7167 29.096 25.479 29.288 25.287C29.4793 25.0957 29.7167 25 30 25H34C34.2833 25 34.5207 25.0957 34.712 25.287C34.904 25.479 35 25.7167 35 26C35 26.2833 34.904 26.5207 34.712 26.712C34.5207 26.904 34.2833 27 34 27H30ZM14 27C13.7167 27 13.4793 26.904 13.288 26.712C13.096 26.5207 13 26.2833 13 26C13 25.7167 13.096 25.479 13.288 25.287C13.4793 25.0957 13.7167 25 14 25H18C18.2833 25 18.521 25.0957 18.713 25.287C18.9043 25.479 19 25.7167 19 26C19 26.2833 18.9043 26.5207 18.713 26.712C18.521 26.904 18.2833 27 18 27H14ZM16 23V16C16 15.45 16.196 14.979 16.588 14.587C16.9793 14.1957 17.45 14 18 14H25.175C25.4417 14 25.696 14.05 25.938 14.15C26.1793 14.25 26.3917 14.3917 26.575 14.575L31.425 19.425C31.6083 19.6083 31.75 19.8207 31.85 20.062C31.95 20.304 32 20.5583 32 20.825V23H16Z" fill="#128BC7"/>
</svg>
