<svg width="20" height="19" viewBox="0 0 20 19" fill="none" xmlns="http://www.w3.org/2000/svg">
<path fill-rule="evenodd" clip-rule="evenodd" d="M16.5 9C16.5 12.866 13.366 16 9.5 16C5.63401 16 2.5 12.866 2.5 9C2.5 5.13401 5.63401 2 9.5 2C13.366 2 16.5 5.13401 16.5 9ZM16.5319 14.6177C17.7635 13.078 18.5 11.125 18.5 9C18.5 4.02944 14.4706 0 9.5 0C4.52944 0 0.5 4.02944 0.5 9C0.5 13.9706 4.52944 18 9.5 18C11.625 18 13.578 17.2635 15.1177 16.0319L17.7929 18.7071C18.1834 19.0976 18.8166 19.0976 19.2071 18.7071C19.5976 18.3166 19.5976 17.6834 19.2071 17.2929L16.5319 14.6177Z" fill="#6F767E"/>
</svg>
