<svg width="48" height="48" viewBox="0 0 48 48" fill="none" xmlns="http://www.w3.org/2000/svg">
<circle cx="24" cy="24" r="24" fill="#E7F7FF"/>
<path d="M18 34C17.45 34 16.9793 33.8043 16.588 33.413C16.196 33.021 16 32.55 16 32V16C16 15.45 16.196 14.979 16.588 14.587C16.9793 14.1957 17.45 14 18 14H26L32 20V23.1L24 31.075V34H18ZM26 34V31.875L31.15 26.7L33.3 28.8L28.125 34H26ZM34.025 28.1L31.9 25.975L32.6 25.275C32.8 25.075 33.0417 24.975 33.325 24.975C33.6083 24.975 33.8417 25.075 34.025 25.275L34.725 26C34.9083 26.2 35 26.4373 35 26.712C35 26.9873 34.9083 27.2167 34.725 27.4L34.025 28.1ZM25 21H30L25 16V21Z" fill="#128BC7"/>
</svg>
